<svg id="Capa_1" enable-background="new 0 0 512 512" xmlns="http://www.w3.org/2000/svg" width="512" height="512" class="bi bi-bootstrap" viewBox="0 0 16 16" style="enable-background:new 0 0 512 512;" xml:space="preserve">
  <path d="M5.062 12.3H8.01c.955 0 1.741-.182 2.358-.546.616-.364.924-.97.924-1.82 0-.39-.1-.74-.302-1.052a1.95 1.95 0 0 0-.847-.733c.33-.14.597-.347.802-.62.205-.274.308-.613.308-1.016 0-.788-.287-1.373-.86-1.758C9.398 4.19 8.708 4 7.785 4H5.062v8.3zm2.378-4.48H6.516V5.7h.886c.462 0 .823.085 1.081.256.258.17.387.452.387.844 0 .384-.133.658-.398.821-.266.163-.672.244-1.12.244zm.095 3.66H6.516V9.7h1.048c.543 0 .964.105 1.263.313.3.208.449.538.449 1.005 0 .418-.14.737-.422.954-.28.217-.712.326-1.296.326z" fill="#00bcff" />
  <path d="M0 4a4 4 0 0 1 4-4h8a4 4 0 0 1 4 4v8a4 4 0 0 1-4 4H4a4 4 0 0 1-4-4V4zm5.062-2.3a.75.75 0 0 0-.75.75v10.1a.75.75 0 0 0 .75.75h3.62c.76 0 1.432-.141 2.016-.423.585-.281 1.036-.68 1.354-1.196.318-.516.477-1.125.477-1.826 0-.678-.186-1.268-.557-1.769a3.29 3.29 0 0 0-1.47-1.075v-.057a3.15 3.15 0 0 0 1.052-.612c.291-.268.519-.594.683-.979.164-.383.246-.83.246-1.342 0-.69-.17-1.297-.512-1.82a3.144 3.144 0 0 0-1.402-1.146C8.825 1.455 8.24 1.3 7.446 1.3H5.062z"/>
</svg>
